<?xml version="1.0" encoding="UTF-8" standalone="no"?>
<!-- Created with Vectornator for iOS (http://vectornator.io/) -->
<!DOCTYPE svg PUBLIC "-//W3C//DTD SVG 1.1//EN" "http://www.w3.org/Graphics/SVG/1.1/DTD/svg11.dtd">
<svg style="fill-rule:nonzero;clip-rule:evenodd;stroke-linecap:round;stroke-linejoin:round;"
    xmlns:vectornator="http://vectornator.io" xmlns:xlink="http://www.w3.org/1999/xlink"
    xmlns="http://www.w3.org/2000/svg" xml:space="preserve" version="1.1" viewBox="0 0 32 32">
    <metadata>
        <vectornator:setting key="DimensionsVisible" value="1" />
        <vectornator:setting key="PencilOnly" value="0" />
        <vectornator:setting key="SnapToPoints" value="0" />
        <vectornator:setting key="GuidesVisible" value="1" />
        <vectornator:setting key="CMYKEnabledKey" value="0" />
        <vectornator:setting key="OutlineMode" value="0" />
        <vectornator:setting key="RulersVisible" value="1" />
        <vectornator:setting key="SnapToEdges" value="0" />
        <vectornator:setting key="DisplayWhiteBackground" value="0" />
        <vectornator:setting key="doHistoryDisabled" value="0" />
        <vectornator:setting key="TimeLapseWatermarkDisabled" value="0" />
        <vectornator:setting key="SnapToGuides" value="1" />
        <vectornator:setting key="DynamicGuides" value="0" />
        <vectornator:setting key="SnapToGrid" value="0" />
        <vectornator:setting key="IsolateActiveLayer" value="0" />
        <vectornator:setting key="Units" value="Points" />
    </metadata>
    <defs />
    <g id="Untitled" vectornator:layerName="Untitled">
        <g opacity="1">
            <path
                d="M13.1426+15.9736C13.1426+14.3954+14.422+13.116+16.0001+13.116C17.5783+13.116+18.8576+14.3954+18.8576+15.9736C18.8576+17.5517+17.5783+18.8311+16.0001+18.8311C14.422+18.8311+13.1426+17.5517+13.1426+15.9736Z"
                opacity="1" fill="#00d8ff" />
            <g opacity="1">
                <path stroke="#00d8ff" stroke-width="1.36704"
                    d="M16.0002+10.1636C19.8368+10.1636+23.4009+10.7141+26.0882+11.6393C29.326+12.754+31.3168+14.4436+31.3168+15.9736C31.3168+17.5679+29.207+19.3628+25.73+20.5149C23.1013+21.3858+19.6421+21.8404+16.0002+21.8404C12.2662+21.8404+8.73037+21.4137+6.07204+20.5053C2.70878+19.3557+0.683059+17.5375+0.683059+15.9736C0.683059+14.456+2.58381+12.7795+5.77614+11.6665C8.47348+10.7261+12.1256+10.1636+15.9997+10.1636L16.0002+10.1636Z"
                    fill="none" stroke-linecap="butt" opacity="1" stroke-linejoin="miter" />
                <path stroke="#00d8ff" stroke-width="1.36704"
                    d="M10.9425+13.0853C12.8592+9.76184+15.1165+6.94938+17.2605+5.0836C19.8436+2.83561+22.3018+1.95524+23.6271+2.71947C25.0083+3.51594+25.5092+6.2404+24.7701+9.82785C24.2119+12.5402+22.8771+15.7638+21.0577+18.9187C19.1923+22.1533+17.0563+25.0031+14.9415+26.8516C12.2655+29.1908+9.67841+30.0374+8.32362+29.2561C7.00898+28.4985+6.50625+26.0139+7.13691+22.6924C7.66977+19.886+9.00702+16.4413+10.9418+13.0853L10.9425+13.0853Z"
                    fill="none" stroke-linecap="butt" opacity="1" stroke-linejoin="miter" />
                <path stroke="#00d8ff" stroke-width="1.36704"
                    d="M10.9473+18.9272C9.02514+15.6074+7.71648+12.2465+7.17023+9.45727C6.51269+6.09663+6.9776+3.52716+8.30169+2.76071C9.68149+1.9619+12.292+2.88853+15.0309+5.32049C17.1018+7.15916+19.2282+9.92497+21.0529+13.0769C22.9237+16.3084+24.3258+19.5823+24.8713+22.3376C25.5615+25.8243+25.0029+28.4883+23.6493+29.2719C22.336+30.0322+19.9327+29.2272+17.3701+27.022C15.2048+25.1588+12.8883+22.2799+10.9473+18.9272Z"
                    fill="none" stroke-linecap="butt" opacity="1" stroke-linejoin="miter" />
            </g>
        </g>
    </g>
</svg>